<svg width="36" height="50" viewBox="0 0 36 50" fill="none" xmlns="http://www.w3.org/2000/svg">
<g clip-path="url(#clip0_3203_24813)">
<path fill-rule="evenodd" clip-rule="evenodd" d="M35.4609 22.8023C35.604 23.2051 35.7195 23.5302 35.7788 23.7427C35.8633 24.1058 35.692 24.2407 35.4203 24.4548C34.9919 24.7923 34.3137 25.3266 33.9941 27.2618C33.6894 28.965 33.3972 29.1438 33.0838 29.3357C32.8151 29.5002 32.5308 29.6743 32.2094 30.8255C31.8265 32.2119 30.9454 32.9865 30.1325 33.7013C29.7439 34.0429 29.3709 34.3709 29.0753 34.7455C28.64 35.5918 28.0741 37.0618 27.16 40.0018C25.9663 43.9319 25.608 44.2369 25.2735 44.5217C25.0469 44.7147 24.8312 44.8983 24.3741 46.1936C23.3191 49.1419 19.2757 49.0709 17.9565 49.0477C17.8605 49.046 17.779 49.0445 17.7141 49.0445C17.6456 49.0445 17.5605 49.046 17.4609 49.0477C16.1039 49.0709 12.0649 49.1401 11.0106 46.1936C10.5402 44.9278 10.3208 44.7395 10.0957 44.5462C9.75838 44.2566 9.40819 43.9559 8.18114 40.0018C6.58828 34.7573 6.06971 34.2204 5.37641 33.5026C5.19818 33.318 5.0084 33.1215 4.78585 32.83C4.2635 32.1173 3.61056 30.4245 3.13173 28.5536C1.99997 27.6627 1.86938 27.3509 1.52114 25.97C1.34322 25.2914 0.984985 24.9325 0.660842 24.6079C0.112662 24.0588 -0.338014 23.6074 0.345849 21.8718C0.51555 21.4411 0.669373 21.0625 0.807153 20.7233C1.55291 18.8873 1.82865 18.2085 1.6082 16.7045C1.34703 14.9227 1.34703 13.1409 2.7835 12.3391C3.45662 11.9842 3.81432 11.3359 4.1746 10.683C4.58318 9.94247 4.99508 9.19595 5.87408 8.86455C6.57864 8.59892 6.80146 8.08276 7.02692 7.56047C7.3308 6.85655 7.63948 6.1415 9.13879 6.01364C9.20106 6.00939 9.26324 6.00519 9.32533 6.001C11.8671 5.82938 14.2609 5.66777 17.2353 2.45C19.0978 0.435096 21.0904 0.467329 22.5968 0.491697C23.5548 0.507195 24.3162 0.519511 24.7223 0C24.8203 0.345412 24.9238 0.629508 25.0163 0.88366C25.2937 1.64557 25.4731 2.13837 25.1141 3.20727C26.0717 1.69273 26.6376 2.22727 27.1164 4.63273C27.5146 4.29046 27.8953 4.1092 28.2265 3.9515C28.8006 3.67817 29.226 3.47559 29.3364 2.62818C29.4507 3.01223 29.5863 3.43226 29.7287 3.87333C30.3461 5.7856 31.0912 8.09321 30.7729 9.57727C31.0709 9.61933 31.3422 9.69862 31.6005 9.77413C32.4367 10.0185 33.1373 10.2233 34.1682 8.99818C34.1633 9.11941 34.1588 9.2382 34.1543 9.35492C34.0805 11.297 34.0284 12.6663 32.427 15.1455C34.2553 12.3836 34.2117 15.0564 34.1682 17.3727C34.1682 19.1629 34.9742 21.4319 35.4609 22.8023ZM20.3258 44.3227C21.7188 44.3227 23.6776 43.2091 23.9388 42.0509C24.0906 41.3517 23.8453 40.8633 23.6046 40.3843C23.4314 40.0394 23.2605 39.6994 23.2423 39.2891C23.1553 38.3091 20.8047 37.6409 19.5858 37.6855C18.9617 37.71 18.748 37.8023 18.5504 37.8877C18.3897 37.9571 18.2396 38.0218 17.8882 38.0418C17.5584 38.022 17.4102 37.9579 17.2508 37.889C17.0526 37.8033 16.8373 37.7101 16.2341 37.6855C15.0153 37.6855 12.7082 38.3536 12.6211 39.2891C12.5859 39.6679 12.415 39.9956 12.2414 40.3284C11.9864 40.8173 11.7257 41.3172 11.8811 42.0064C12.1423 43.1645 14.7106 44.5009 15.4506 44.2782C15.5633 44.2443 15.6609 44.2196 15.7453 44.1983C16.2151 44.0798 16.2776 44.064 16.2776 43.12V41.7836C16.2776 41.2936 16.6694 40.8927 17.1482 40.8927H18.5847C19.0635 40.8927 19.4553 41.2936 19.4553 41.7836C19.4553 41.7836 19.4988 42.4518 19.4988 43.1645C19.4988 43.8773 19.7164 44.3227 20.3258 44.3227ZM20.8509 35.8066C21.7027 36.1425 22.7914 36.5718 24.4611 36.5718C27.247 36.5718 28.5094 31.1818 28.5094 28.6873C28.5094 27.3578 28.3857 26.585 28.2702 25.8632C28.169 25.2307 28.0741 24.6373 28.0741 23.7427C28.0741 23.08 27.9282 22.3907 27.786 21.719C27.5173 20.4491 27.2619 19.2422 28.0306 18.3973C26.2023 19.11 25.0706 18.3527 24.1564 17.5064C24.0095 17.3733 23.8405 17.2125 23.6496 17.0308C22.3704 15.8133 20.1066 13.6587 16.887 12.6509C13.5788 11.6264 11.4023 13.4082 10.3141 14.4773C9.48703 15.3236 9.18232 16.3482 9.18232 17.4173C9.18232 18.6884 8.75687 19.8476 8.35563 20.9409C7.99757 21.9164 7.65879 22.8395 7.65879 23.7427C7.65879 24.6373 7.56385 25.2307 7.46264 25.8632C7.34715 26.585 7.2235 27.3578 7.2235 28.6873C7.2235 31.1818 8.48585 36.5718 11.2282 36.5718C12.9296 36.5718 14.0141 36.1398 14.8584 35.8035C15.3965 35.5891 15.8371 35.4136 16.2776 35.4136C16.9118 35.4136 17.1086 35.5116 17.2817 35.5977C17.4174 35.6652 17.5385 35.7255 17.8447 35.7255C18.1508 35.7255 18.272 35.6652 18.4077 35.5977C18.5807 35.5116 18.7775 35.4136 19.4117 35.4136C19.8544 35.4136 20.3038 35.5908 20.8509 35.8066ZM20.0646 22.3173C20.3258 22.4954 20.4999 22.7182 20.6741 22.9854C20.8482 23.2527 20.9352 23.52 20.9352 23.9654H23.547C23.4599 23.2527 23.2858 22.6291 22.9811 22.05C22.6764 21.4709 22.2846 21.0254 21.8058 20.6245C21.327 20.2682 20.8046 19.9564 20.1952 19.7782C19.5858 19.5554 18.9329 19.4664 18.2799 19.4664C17.3223 19.4664 16.4952 19.6 15.7552 19.9564C15.0152 20.2682 14.4058 20.7582 13.8835 21.3373C13.3611 21.9609 12.9693 22.6291 12.7082 23.4309C12.447 24.2327 12.3164 25.0791 12.3164 26.0145C12.3164 26.9054 12.447 27.7518 12.7082 28.5536C12.9693 29.3554 13.3611 30.0236 13.8835 30.6027C14.3623 31.1818 15.0152 31.6718 15.7552 31.9836C16.4952 32.2954 17.3658 32.4736 18.2799 32.4736C19.0199 32.4736 19.7164 32.34 20.3258 32.1173C20.9788 31.85 21.5011 31.5382 21.9799 31.0927C22.4588 30.6473 22.807 30.1127 23.1117 29.4891C23.3729 28.8654 23.547 28.1973 23.6341 27.3954H21.0223C20.9352 28.1973 20.6741 28.91 20.1952 29.4C19.7164 29.89 19.107 30.1573 18.2799 30.1573C17.6705 30.1573 17.1917 30.0236 16.7564 29.8009C16.3211 29.5782 15.9729 29.2664 15.7117 28.8654C15.4505 28.4645 15.2764 28.0191 15.1458 27.5291C15.0152 27.0391 14.9717 26.5491 14.9717 26.0145C14.9717 25.4354 15.0152 24.9009 15.1458 24.4109C15.2764 23.8764 15.4505 23.4309 15.7117 23.03C15.9729 22.6291 16.3211 22.2727 16.7564 22.05C17.1482 21.8273 17.6705 21.6936 18.2799 21.6936C18.6282 21.6936 18.9329 21.7827 19.2376 21.8718L19.2376 21.8718C19.5423 21.9609 19.847 22.1391 20.0646 22.3173Z" fill="black"/>
</g>
<defs>
<clipPath id="clip0_3203_24813">
<rect width="35.8005" height="49.053" fill="white"/>
</clipPath>
</defs>
</svg>
